<svg version="1.1" id="Layer_1" xmlns="http://www.w3.org/2000/svg" xmlns:xlink="http://www.w3.org/1999/xlink" x="0px" y="0px"
	 width="100%" viewBox="0 0 225 225" enable-background="new 0 0 225 225" xml:space="preserve">
<path fill="#FDFEFE" opacity="1.000000" stroke="none" 
	d="
M130.000000,226.000000 
	C86.666672,226.000000 43.833340,226.000000 1.000006,226.000000 
	C1.000004,151.000000 1.000004,76.000015 1.000002,1.000016 
	C75.999992,1.000010 150.999985,1.000010 225.999969,1.000005 
	C225.999985,75.999985 225.999985,150.999969 226.000000,225.999969 
	C194.166672,226.000000 162.333328,226.000000 130.000000,226.000000 
M155.256897,176.860992 
	C154.503235,176.929611 153.749588,176.998230 152.209274,176.889267 
	C152.173904,185.579208 152.138535,194.269165 152.014816,203.706100 
	C153.673065,205.386246 155.331314,207.066391 156.568832,208.320236 
	C156.568832,198.162888 156.568832,188.364258 156.992889,178.031784 
	C157.634781,177.653122 158.270874,177.263733 158.925659,176.908829 
	C159.011185,176.862473 159.192764,176.993362 159.329849,177.042145 
	C159.343079,176.992340 159.356308,176.942520 159.336731,177.016190 
	C158.247360,177.016190 157.125534,177.016190 155.256897,176.860992 
M72.642967,181.938309 
	C72.740067,187.243881 72.837166,192.549438 72.439545,198.507263 
	C71.368813,197.342758 70.154739,196.279037 69.252579,194.996002 
	C65.667229,189.896927 62.440826,184.514160 58.495068,179.718994 
	C57.318413,178.289062 54.238083,178.369186 51.990231,177.998306 
	C51.832851,177.972336 51.344761,179.950714 50.817478,181.917419 
	C50.824833,190.493103 50.832188,199.068771 50.036507,207.810974 
	C48.799267,207.960358 47.562031,208.109726 46.324791,208.259109 
	C46.346241,208.469574 46.367691,208.680023 46.389137,208.890488 
	C47.930382,208.890488 49.471626,208.890488 51.867645,208.668488 
	C51.868248,199.447983 51.868847,190.227493 52.150620,180.403809 
	C53.098030,181.326202 54.221470,182.125763 54.964668,183.190674 
	C60.325928,190.872620 65.580070,198.629440 70.964462,206.294907 
	C71.514923,207.078552 72.699890,207.416519 73.918877,207.535904 
	C73.875984,207.361954 73.833092,207.188019 73.944511,206.134384 
	C73.903084,203.754868 73.861656,201.375336 74.008858,198.077194 
	C73.960747,192.381454 73.912643,186.685730 74.014839,180.174942 
	C73.531189,179.012756 73.047539,177.850555 72.563889,176.688370 
	C72.229446,176.856064 71.894997,177.023773 71.560555,177.191467 
	C72.004089,178.473022 72.447624,179.754593 72.642967,181.938309 
M174.019699,202.504181 
	C173.769104,203.919632 173.518509,205.335083 173.267914,206.750534 
	C173.615173,206.857208 173.962418,206.963882 174.309677,207.070557 
	C174.853851,205.361069 175.398041,203.651566 175.971405,201.012405 
	C175.971405,192.989944 175.971405,184.967484 175.971405,176.945023 
	C175.466232,176.966721 174.961075,176.988419 174.455902,177.010101 
	C174.455902,185.361099 174.455902,193.712082 174.019699,202.504181 
M139.767899,198.296646 
	C139.801422,192.482590 139.704437,186.662643 139.966492,180.858902 
	C140.026855,179.522171 141.318451,178.241043 142.091400,176.847931 
	C139.922028,176.847931 137.114517,176.847931 134.307007,176.847931 
	C134.305466,177.023544 134.303940,177.199158 134.302399,177.374771 
	C135.527222,177.374771 136.752045,177.374771 137.826080,177.374771 
	C137.826080,179.612640 137.909302,181.607498 137.809570,183.593170 
	C137.566315,188.436340 137.238342,193.275253 136.543686,197.561737 
	C131.827774,190.659592 127.111877,183.757446 122.457893,176.945938 
	C120.781929,177.359573 119.403328,177.699829 117.137299,177.880112 
	C116.786758,178.157196 116.131241,178.432678 116.129761,178.711609 
	C116.077118,188.659729 116.085670,198.608154 116.085670,208.556549 
	C116.722389,208.575180 117.359108,208.593811 117.995827,208.612442 
	C117.995827,199.048508 117.995827,189.484573 118.631531,180.190735 
	C123.781158,187.725266 128.889816,195.288422 134.114151,202.770798 
	C135.190552,204.312439 136.698318,205.552887 138.118439,207.512299 
	C138.436050,208.089905 138.753662,208.667526 139.071274,209.245132 
	C139.330597,209.150833 139.589935,209.056519 139.849258,208.962204 
	C139.657883,207.975754 139.466492,206.989319 139.434433,205.138626 
	C139.405045,203.091599 139.375641,201.044571 139.767899,198.296646 
M94.662979,209.037506 
	C95.107384,208.991333 95.551796,208.945160 96.818756,209.063583 
	C98.603722,209.063583 100.388687,209.063583 102.173653,209.063583 
	C102.164352,208.730438 102.155052,208.397278 102.145752,208.064133 
	C100.735161,207.953842 99.324570,207.843552 98.013863,207.741089 
	C98.013863,197.626694 98.013863,187.912003 98.013863,178.216202 
	C105.003899,178.101730 105.551895,178.569611 108.966293,187.866928 
	C108.966293,183.619873 108.966293,180.307327 108.966293,177.116791 
	C99.484283,177.116791 90.274246,177.116791 80.858215,177.116791 
	C80.858215,179.103378 80.858223,180.757950 80.858223,182.412521 
	C80.858223,183.871567 80.858215,185.330597 80.858215,186.789642 
	C83.995193,179.011017 85.595665,177.740494 92.371574,178.562332 
	C92.371574,188.113342 92.371574,197.701660 92.371574,207.541641 
	C91.004356,207.767700 89.632622,207.994492 88.260895,208.221298 
	C88.263245,208.447128 88.265594,208.672943 88.267944,208.898773 
	C90.179832,208.898773 92.091713,208.898773 94.662979,209.037506 
M41.022785,50.955727 
	C41.070873,75.957352 41.118961,100.958977 41.044731,126.778160 
	C43.404175,146.799210 57.298904,160.143570 77.160728,160.453644 
	C101.306030,160.830582 125.466515,160.841980 149.611328,160.450226 
	C168.504883,160.143677 184.716202,145.701752 185.044159,128.498581 
	C185.558319,101.527382 185.584641,74.530487 185.021194,47.561108 
	C184.667679,30.639402 167.887543,15.789330 150.069489,15.868435 
	C125.052765,15.936387 100.036041,16.004339 74.185356,15.911781 
	C56.061367,17.264872 41.934601,31.865694 41.022785,50.955727 
M148.877457,176.910065 
	C148.611664,177.057388 148.345886,177.204727 148.075439,177.341293 
	C148.408493,177.230682 148.741562,177.120071 148.877457,176.910065 
z"/>
<path fill="#024895" opacity="1.000000" stroke="none" 
	d="
M150.989792,16.052999 
	C167.887543,15.789330 184.667679,30.639402 185.021194,47.561108 
	C185.584641,74.530487 185.558319,101.527382 185.044159,128.498581 
	C184.716202,145.701752 168.504883,160.143677 149.611328,160.450226 
	C125.466515,160.841980 101.306030,160.830582 77.160728,160.453644 
	C57.298904,160.143570 43.404175,146.799210 41.367020,126.052017 
	C41.792019,124.677116 41.984070,124.028419 41.984531,123.379601 
	C42.000969,100.181122 42.012344,76.982605 41.965176,53.784214 
	C41.962631,52.533436 41.447845,51.283703 41.171509,50.033482 
	C41.934601,31.865694 56.061367,17.264872 74.906326,16.273872 
	C76.272926,16.755724 76.918457,16.979643 77.564194,16.980188 
	C100.806503,16.999853 124.048859,17.013144 147.291061,16.960018 
	C148.524658,16.957201 149.756912,16.368795 150.989792,16.052999 
M129.499451,51.873451 
	C112.104347,51.873451 94.709244,51.873451 77.321220,51.873451 
	C77.321220,76.353477 77.321220,100.090324 77.321220,123.867226 
	C101.426521,123.867226 125.273796,123.867226 149.199615,123.867226 
	C149.199615,99.745529 149.199615,75.991974 149.199615,51.873428 
	C142.785004,51.873428 136.642044,51.873428 129.499451,51.873451 
M150.591812,123.516113 
	C150.591812,123.516113 150.484177,123.582336 150.591812,123.516113 
z"/>
<path fill="#251A19" opacity="1.000000" stroke="none" 
	d="
M94.003601,208.898773 
	C92.091713,208.898773 90.179832,208.898773 88.267944,208.898773 
	C88.265594,208.672943 88.263245,208.447128 88.260895,208.221298 
	C89.632622,207.994492 91.004356,207.767700 92.371574,207.541641 
	C92.371574,197.701660 92.371574,188.113342 92.371574,178.562332 
	C85.595665,177.740494 83.995193,179.011017 80.858215,186.789642 
	C80.858215,185.330597 80.858223,183.871567 80.858223,182.412521 
	C80.858223,180.757950 80.858215,179.103378 80.858215,177.116791 
	C90.274246,177.116791 99.484283,177.116791 108.966293,177.116791 
	C108.966293,180.307327 108.966293,183.619873 108.966293,187.866928 
	C105.551895,178.569611 105.003899,178.101730 98.013863,178.216202 
	C98.013863,187.912003 98.013863,197.626694 98.013863,207.741089 
	C99.324570,207.843552 100.735161,207.953842 102.145752,208.064133 
	C102.155052,208.397278 102.164352,208.730438 102.173653,209.063583 
	C100.388687,209.063583 98.603722,209.063583 96.417374,208.519165 
	C96.015991,198.207245 96.015991,188.439743 96.015991,178.672256 
	C95.345192,178.670288 94.674400,178.668335 94.003601,178.666367 
	C94.003601,188.743835 94.003601,198.821304 94.003601,208.898773 
z"/>
<path fill="#271511" opacity="1.000000" stroke="none" 
	d="
M51.010456,180.997040 
	C51.344761,179.950714 51.832851,177.972336 51.990231,177.998306 
	C54.238083,178.369186 57.318413,178.289062 58.495068,179.718994 
	C62.440826,184.514160 65.667229,189.896927 69.252579,194.996002 
	C70.154739,196.279037 71.368813,197.342758 72.754684,198.423889 
	C73.319954,198.558960 73.570091,198.777390 73.820236,198.995819 
	C73.861656,201.375336 73.903084,203.754868 73.725441,206.648132 
	C73.262390,207.451691 73.290405,207.718155 73.590424,207.961288 
	C72.699890,207.416519 71.514923,207.078552 70.964462,206.294907 
	C65.580070,198.629440 60.325928,190.872620 54.964668,183.190674 
	C54.221470,182.125763 53.098030,181.326202 51.795242,180.706467 
	C51.439869,181.009125 51.010456,180.997040 51.010456,180.997040 
z"/>
<path fill="#24120E" opacity="1.000000" stroke="none" 
	d="
M138.007263,206.932159 
	C136.698318,205.552887 135.190552,204.312439 134.114151,202.770798 
	C128.889816,195.288422 123.781158,187.725266 118.389366,179.747284 
	C118.106377,178.882584 118.065552,178.461319 118.024719,178.040070 
	C119.403328,177.699829 120.781929,177.359573 122.457893,176.945938 
	C127.111877,183.757446 131.827774,190.659592 136.863525,198.187561 
	C137.904343,198.874756 138.625290,198.936157 139.346252,198.997559 
	C139.375641,201.044571 139.405045,203.091599 139.050797,205.564392 
	C138.447189,206.304153 138.227234,206.618164 138.007263,206.932159 
z"/>
<path fill="#372722" opacity="1.000000" stroke="none" 
	d="
M156.568832,178.565628 
	C156.568832,188.364258 156.568832,198.162888 156.568832,208.320236 
	C155.331314,207.066391 153.673065,205.386246 152.364151,203.048187 
	C152.835999,194.305634 152.958511,186.220963 153.442871,178.111420 
	C154.532410,178.053619 155.260101,178.020706 156.130081,178.135239 
	C156.272369,178.282684 156.568832,178.565628 156.568832,178.565628 
M155.490204,202.361328 
	C155.490204,202.361328 155.392532,202.542053 155.392532,202.542053 
	C155.392532,202.542053 155.575729,202.513870 155.490204,202.361328 
z"/>
<path fill="#003B8F" opacity="1.000000" stroke="none" 
	d="
M150.529633,15.960717 
	C149.756912,16.368795 148.524658,16.957201 147.291061,16.960018 
	C124.048859,17.013144 100.806503,16.999853 77.564194,16.980188 
	C76.918457,16.979643 76.272926,16.755724 75.323303,16.354126 
	C100.036041,16.004339 125.052765,15.936387 150.529633,15.960717 
z"/>
<path fill="#003A90" opacity="1.000000" stroke="none" 
	d="
M41.097145,50.494606 
	C41.447845,51.283703 41.962631,52.533436 41.965176,53.784214 
	C42.012344,76.982605 42.000969,100.181122 41.984531,123.379601 
	C41.984070,124.028419 41.792019,124.677116 41.428177,125.643234 
	C41.118961,100.958977 41.070873,75.957352 41.097145,50.494606 
z"/>
<path fill="#756C6A" opacity="1.000000" stroke="none" 
	d="
M139.557068,198.647095 
	C138.625290,198.936157 137.904343,198.874756 137.063934,198.464630 
	C137.238342,193.275253 137.566315,188.436340 137.809570,183.593170 
	C137.909302,181.607498 137.826080,179.612640 137.826080,177.374771 
	C136.752045,177.374771 135.527222,177.374771 134.302399,177.374771 
	C134.303940,177.199158 134.305466,177.023544 134.307007,176.847931 
	C137.114517,176.847931 139.922028,176.847931 142.091400,176.847931 
	C141.318451,178.241043 140.026855,179.522171 139.966492,180.858902 
	C139.704437,186.662643 139.801422,192.482590 139.557068,198.647095 
z"/>
<path fill="#220E08" opacity="1.000000" stroke="none" 
	d="
M94.333290,208.968140 
	C94.003601,198.821304 94.003601,188.743835 94.003601,178.666367 
	C94.674400,178.668335 95.345192,178.670288 96.015991,178.672256 
	C96.015991,188.439743 96.015991,198.207245 96.006096,208.436859 
	C95.551796,208.945160 95.107384,208.991333 94.333290,208.968140 
z"/>
<path fill="#726A67" opacity="1.000000" stroke="none" 
	d="
M117.581009,177.960083 
	C118.065552,178.461319 118.106377,178.882584 118.071518,179.612244 
	C117.995827,189.484573 117.995827,199.048508 117.995827,208.612442 
	C117.359108,208.593811 116.722389,208.575180 116.085670,208.556549 
	C116.085670,198.608154 116.077118,188.659729 116.129761,178.711609 
	C116.131241,178.432678 116.786758,178.157196 117.581009,177.960083 
z"/>
<path fill="#1C0100" opacity="1.000000" stroke="none" 
	d="
M50.913967,181.457230 
	C51.010456,180.997040 51.439869,181.009125 51.654659,181.008057 
	C51.868847,190.227493 51.868248,199.447983 51.405823,208.466736 
	C50.909184,208.058136 50.874363,207.851288 50.839546,207.644455 
	C50.832188,199.068771 50.824833,190.493103 50.913967,181.457230 
z"/>
<path fill="#020000" opacity="1.000000" stroke="none" 
	d="
M153.081024,178.136307 
	C152.958511,186.220963 152.835999,194.305634 152.408325,202.674698 
	C152.138535,194.269165 152.173904,185.579208 152.615799,177.246063 
	C153.041885,177.780655 153.061447,177.958481 153.081024,178.136307 
z"/>
<path fill="#100101" opacity="1.000000" stroke="none" 
	d="
M174.455902,202.063065 
	C174.455902,193.712082 174.455902,185.361099 174.455902,177.010101 
	C174.961075,176.988419 175.466232,176.966721 175.971405,176.945023 
	C175.971405,184.967484 175.971405,192.989944 175.588776,201.551208 
	C174.956070,202.081009 174.705978,202.072037 174.455902,202.063065 
z"/>
<path fill="#341F19" opacity="1.000000" stroke="none" 
	d="
M73.914551,198.536499 
	C73.570091,198.777390 73.319954,198.558960 73.002045,198.097778 
	C72.837166,192.549438 72.740067,187.243881 73.010208,181.471527 
	C73.377449,181.004730 73.864532,180.989990 73.864532,180.989990 
	C73.912643,186.685730 73.960747,192.381454 73.914551,198.536499 
z"/>
<path fill="#978F8D" opacity="1.000000" stroke="none" 
	d="
M174.237793,202.283630 
	C174.705978,202.072037 174.956070,202.081009 175.574188,202.016037 
	C175.398041,203.651566 174.853851,205.361069 174.309677,207.070557 
	C173.962418,206.963882 173.615173,206.857208 173.267914,206.750534 
	C173.518509,205.335083 173.769104,203.919632 174.237793,202.283630 
z"/>
<path fill="#372722" opacity="1.000000" stroke="none" 
	d="
M156.003708,177.016190 
	C157.125534,177.016190 158.247360,177.016190 159.336731,177.016190 
	C159.356308,176.942520 159.343079,176.992340 159.329849,177.042145 
	C159.192764,176.993362 159.011185,176.862473 158.925659,176.908829 
	C158.270874,177.263733 157.634781,177.653122 156.780853,178.298706 
	C156.568832,178.565628 156.272369,178.282684 156.151550,177.892670 
	C156.030731,177.502670 156.003708,177.016190 156.003708,177.016190 
z"/>
<path fill="#271511" opacity="1.000000" stroke="none" 
	d="
M73.939682,180.582458 
	C73.864532,180.989990 73.377449,181.004730 73.134308,181.020447 
	C72.447624,179.754593 72.004089,178.473022 71.560555,177.191467 
	C71.894997,177.023773 72.229446,176.856064 72.563889,176.688370 
	C73.047539,177.850555 73.531189,179.012756 73.939682,180.582458 
z"/>
<path fill="#756C6A" opacity="1.000000" stroke="none" 
	d="
M138.062851,207.222229 
	C138.227234,206.618164 138.447189,206.304153 138.971130,205.996521 
	C139.466492,206.989319 139.657883,207.975754 139.849258,208.962204 
	C139.589935,209.056519 139.330597,209.150833 139.071274,209.245132 
	C138.753662,208.667526 138.436050,208.089905 138.062851,207.222229 
z"/>
<path fill="#271511" opacity="1.000000" stroke="none" 
	d="
M50.438026,207.727722 
	C50.874363,207.851288 50.909184,208.058136 50.978436,208.577728 
	C49.471626,208.890488 47.930382,208.890488 46.389137,208.890488 
	C46.367691,208.680023 46.346241,208.469574 46.324791,208.259109 
	C47.562031,208.109726 48.799267,207.960358 50.438026,207.727722 
z"/>
<path fill="#372722" opacity="1.000000" stroke="none" 
	d="
M148.976044,176.959763 
	C148.741562,177.120071 148.408493,177.230682 148.077759,177.346680 
	C148.345886,177.204727 148.611664,177.057388 148.976044,176.959763 
z"/>
<path fill="#160000" opacity="1.000000" stroke="none" 
	d="
M155.630310,176.938599 
	C156.003708,177.016190 156.030731,177.502670 156.009262,177.745239 
	C155.260101,178.020706 154.532410,178.053619 153.442871,178.111420 
	C153.061447,177.958481 153.041885,177.780655 153.009125,177.334839 
	C153.749588,176.998230 154.503235,176.929611 155.630310,176.938599 
z"/>
<path fill="#341F19" opacity="1.000000" stroke="none" 
	d="
M73.754654,207.748596 
	C73.290405,207.718155 73.262390,207.451691 73.648285,207.087982 
	C73.833092,207.188019 73.875984,207.361954 73.754654,207.748596 
z"/>
<path fill="#FBFCFD" opacity="1.000000" stroke="none" 
	d="
M129.999268,51.873440 
	C136.642044,51.873428 142.785004,51.873428 149.199615,51.873428 
	C149.199615,75.991974 149.199615,99.745529 149.199615,123.867226 
	C125.273796,123.867226 101.426521,123.867226 77.321220,123.867226 
	C77.321220,100.090324 77.321220,76.353477 77.321220,51.873451 
	C94.709244,51.873451 112.104347,51.873451 129.999268,51.873440 
M140.887924,98.106712 
	C141.168533,97.149246 141.484497,96.200554 141.724365,95.232979 
	C144.727737,83.117943 140.094940,70.595512 130.014099,63.549332 
	C119.838867,56.437164 106.375664,56.352169 96.275879,63.336323 
	C86.149323,70.338989 81.358780,82.852303 84.193230,94.897240 
	C86.940109,106.570023 97.375717,115.958336 108.968445,117.186081 
	C123.316505,118.705635 134.298599,112.332169 140.887924,98.106712 
z"/>
<path fill="#003E90" opacity="1.000000" stroke="none" 
	d="
M150.537994,123.549225 
	C150.484177,123.582336 150.591812,123.516113 150.537994,123.549225 
z"/>
<path fill="#160000" opacity="1.000000" stroke="none" 
	d="
M155.532959,202.437592 
	C155.575729,202.513870 155.392532,202.542053 155.392532,202.542053 
	C155.392532,202.542053 155.490204,202.361328 155.532959,202.437592 
z"/>
<path fill="#024895" opacity="1.000000" stroke="none" 
	d="
M140.740417,98.469742 
	C134.298599,112.332169 123.316505,118.705635 108.968445,117.186081 
	C97.375717,115.958336 86.940109,106.570023 84.193230,94.897240 
	C81.358780,82.852303 86.149323,70.338989 96.275879,63.336323 
	C106.375664,56.352169 119.838867,56.437164 130.014099,63.549332 
	C140.094940,70.595512 144.727737,83.117943 141.724365,95.232979 
	C141.484497,96.200554 141.168533,97.149246 140.740417,98.469742 
z"/>
</svg>