<svg version="1.1" id="Layer_1" xmlns="http://www.w3.org/2000/svg" xmlns:xlink="http://www.w3.org/1999/xlink" x="0px" y="0px"
	 width="100%" viewBox="0 0 200 200" enable-background="new 0 0 200 200" xml:space="preserve">
<path fill="#FEFEFE" opacity="1.000000" stroke="none" 
	d="
M100.000000,201.000000 
	C66.687195,201.000000 33.874397,201.000000 1.030797,201.000000 
	C1.030797,134.395569 1.030797,67.791107 1.030797,1.093328 
	C67.562645,1.093328 134.125458,1.093328 200.844147,1.093328 
	C200.844147,67.666382 200.844147,134.333145 200.844147,201.000000 
	C167.458054,201.000000 133.979034,201.000000 100.000000,201.000000 
M44.241199,71.990761 
	C43.125301,72.980904 42.009403,73.971046 40.427364,75.046295 
	C40.128677,75.216843 39.961590,75.473175 39.365360,76.068207 
	C38.941448,76.713829 38.517536,77.359444 37.750885,78.607567 
	C33.172577,85.210419 28.519623,91.764282 24.113173,98.479897 
	C23.579828,99.292732 23.952791,101.287422 24.624876,102.211067 
	C29.968832,109.555252 35.486691,116.772903 41.222916,124.645874 
	C53.622715,136.626831 68.637344,141.140274 86.092957,141.053665 
	C84.478004,138.365417 83.389702,136.553848 82.186867,134.318970 
	C82.186867,134.318970 81.883644,134.001282 81.737000,133.329773 
	C78.407211,127.699646 75.363609,122.569824 68.446014,119.556526 
	C56.669651,114.426758 53.055984,98.916092 59.682064,87.920296 
	C66.457413,76.676788 81.343277,73.486115 92.381958,80.536392 
	C94.781029,82.068634 98.114647,82.137634 101.795372,83.022270 
	C103.412392,82.448677 105.556694,80.911209 106.559769,81.459930 
	C112.499207,84.709015 118.502190,82.417023 124.424820,83.071060 
	C124.620377,82.612282 124.815933,82.153496 125.011482,81.694717 
	C121.402618,78.398132 117.793755,75.101555 113.834976,71.227226 
	C98.644096,57.809383 69.889938,55.994804 53.845707,65.616089 
	C52.183258,66.706017 50.520805,67.795937 48.979458,68.928894 
	C48.979458,68.928894 48.888935,68.837654 48.251637,68.966446 
	C47.114429,69.929810 45.977222,70.893166 44.998882,71.915001 
	C44.998882,71.915001 44.859032,71.819595 44.241199,71.990761 
M75.429016,91.966301 
	C73.809448,91.966301 72.189873,91.966301 70.331146,91.966301 
	C70.331146,99.789886 70.331146,107.191864 70.331146,115.189476 
	C76.229988,113.802689 71.444214,108.089417 74.829521,105.613655 
	C76.635498,107.589523 78.277824,109.681664 80.227821,111.430786 
	C81.934181,112.961380 83.986397,114.106377 85.885834,115.421715 
	C86.210136,114.983253 86.534431,114.544785 86.858734,114.106323 
	C84.054466,111.140503 81.250206,108.174675 77.955856,104.690529 
	C82.435669,103.588509 87.295692,102.675476 86.545540,97.664940 
	C85.749725,92.349411 80.840172,91.953094 75.429016,91.966301 
M104.858994,95.685822 
	C101.141273,91.755470 96.426025,90.567245 92.468254,93.082336 
	C90.990196,94.021622 89.493698,96.028328 89.368065,97.653641 
	C89.266945,98.962036 90.974709,100.764572 92.320900,101.737961 
	C93.889915,102.872482 96.064110,103.136024 97.748131,104.153976 
	C99.948830,105.484230 104.346153,106.229210 102.341766,109.662849 
	C101.358307,111.347572 96.928215,111.198776 94.019753,111.469788 
	C93.175110,111.548492 92.282631,110.010208 91.258209,109.577133 
	C90.258438,109.154480 89.062012,109.196983 87.259926,108.934471 
	C90.896072,114.627678 96.352882,116.631241 101.621590,114.257187 
	C103.549294,113.388565 105.648430,111.046967 105.992653,109.083389 
	C106.286674,107.406227 104.618988,104.722694 103.032463,103.535088 
	C100.708748,101.795654 97.631248,101.094788 94.984665,99.737457 
	C94.092812,99.280052 92.885765,98.072052 92.990616,97.385437 
	C93.118790,96.546089 94.426552,95.356148 95.310974,95.276085 
	C97.029121,95.120529 98.807610,95.635185 100.561478,95.869301 
	C101.899826,96.047943 103.238770,96.222130 104.858994,95.685822 
M152.908539,140.832626 
	C159.421982,138.528488 162.143372,134.724060 160.897476,129.664291 
	C159.639832,124.556854 153.817505,121.653633 147.127548,122.798119 
	C141.644531,123.736137 138.384918,127.664856 138.854874,132.768936 
	C139.362030,138.277054 143.889038,141.073639 152.908539,140.832626 
M169.270523,122.842026 
	C167.504333,122.842026 165.738129,122.842026 163.534119,122.842026 
	C163.534119,128.390930 163.476776,133.672562 163.606491,138.949600 
	C163.622757,139.611237 164.625977,140.248611 165.171890,140.897232 
	C165.721939,140.232468 166.690216,139.601166 166.746521,138.896927 
	C166.944763,136.418015 166.962921,133.905518 166.803497,131.421539 
	C166.544769,127.390121 168.512009,125.530190 172.339386,125.449638 
	C176.464157,125.362846 177.787354,127.761589 177.630478,131.543671 
	C177.503342,134.608887 177.604675,137.683563 177.604675,141.030533 
	C180.725983,139.742325 181.768463,133.878754 180.586670,128.264938 
	C179.620361,123.674713 177.120834,122.354073 169.270523,122.842026 
M129.209457,93.012093 
	C125.218765,92.564621 121.228081,92.117149 116.936272,91.635910 
	C116.936272,99.230049 116.881424,105.853897 117.005920,112.474365 
	C117.021431,113.299217 117.987274,114.106194 118.512772,114.921440 
	C119.045174,114.118210 119.971329,113.345604 120.036644,112.506035 
	C120.237823,109.919983 120.109985,107.308342 120.109985,104.584129 
	C122.902122,104.355873 125.406219,104.675583 127.434715,103.840294 
	C129.533035,102.976242 132.202759,101.268242 132.700562,99.413544 
	C133.145966,97.754143 130.974304,95.392311 129.209457,93.012093 
M124.358093,125.758301 
	C125.793755,126.148109 127.229408,126.537918 128.665085,126.927727 
	C128.680511,126.329208 128.863388,125.266006 128.686142,125.202141 
	C126.175674,124.297478 123.599861,122.897438 121.075073,122.963463 
	C119.563805,123.002983 116.723175,125.680573 116.928757,126.656654 
	C117.343811,128.627274 119.169838,130.580963 120.896889,131.917557 
	C122.685555,133.301865 125.046234,133.947083 127.358627,135.008209 
	C123.554199,141.263657 119.627083,134.817474 115.178436,136.530151 
	C117.086929,138.050735 118.276016,139.377487 119.759018,140.105606 
	C123.568886,141.976105 128.780716,140.568970 129.701538,137.390167 
	C131.037537,132.778046 127.697525,131.311035 124.272713,129.997681 
	C122.704689,129.396362 121.197151,128.637299 119.662186,127.949791 
	C119.691460,127.451088 119.720734,126.952377 119.750015,126.453674 
	C121.006416,126.133064 122.262817,125.812447 124.358093,125.758301 
M95.761978,138.800171 
	C96.458321,138.986130 97.676247,139.480774 97.775352,139.313293 
	C100.914261,134.009201 103.944572,128.640854 107.541862,122.314026 
	C100.558907,123.917900 100.807938,130.597977 96.873009,133.373520 
	C93.115646,130.592972 93.357254,123.904953 87.071960,123.583672 
	C89.828766,128.456924 92.585571,133.330185 95.761978,138.800171 
M109.755081,133.333038 
	C109.748283,140.130981 109.748283,140.130981 112.773270,140.239120 
	C112.773270,134.509018 112.773270,128.783768 112.773270,121.390228 
	C111.170479,123.309639 109.976486,124.087173 109.870468,124.992172 
	C109.584366,127.434395 109.761620,129.930893 109.755081,133.333038 
M112.326660,114.814415 
	C112.551956,107.757355 112.818192,100.700882 112.919762,93.642044 
	C112.927361,93.114395 111.756706,92.569794 111.133789,92.033081 
	C110.668617,92.732292 109.809410,93.426094 109.799721,94.131561 
	C109.711044,100.589867 109.735619,107.050835 109.855171,113.508652 
	C109.864090,113.990593 110.861504,114.454231 112.326660,114.814415 
M133.098801,139.880325 
	C135.606308,141.729965 136.102585,140.348145 136.091904,138.045441 
	C136.072601,133.882675 136.192169,129.715179 136.009186,125.560425 
	C135.968307,124.632256 134.916702,123.748589 134.330429,122.844437 
	C133.877594,123.727844 133.059998,124.600449 133.033447,125.496498 
	C132.900345,129.988266 132.974304,134.486145 133.098801,139.880325 
z"/>
<path fill="#32A5B3" opacity="1.000000" stroke="none" 
	d="
M101.017838,82.880569 
	C98.114647,82.137634 94.781029,82.068634 92.381958,80.536392 
	C81.343277,73.486115 66.457413,76.676788 59.682064,87.920296 
	C53.055984,98.916092 56.669651,114.426758 68.446014,119.556526 
	C75.363609,122.569824 78.407211,127.699646 81.586029,133.672882 
	C81.435051,134.016006 80.986137,134.034500 80.646225,133.984100 
	C72.882957,130.608109 66.495537,124.310532 57.423302,125.582527 
	C56.986122,124.542961 56.436245,123.235420 55.918610,121.556702 
	C55.733803,120.412712 55.682140,119.536880 55.274647,118.882690 
	C49.977787,110.379234 47.299625,101.393372 50.043808,91.373039 
	C51.018723,87.813141 52.036987,84.265121 53.072536,80.425644 
	C54.404888,78.757790 55.700172,77.375954 57.245110,75.982819 
	C57.494766,75.971512 57.993969,75.948334 58.212173,75.858444 
	C58.701035,75.581314 58.880161,75.329071 58.979034,75.002380 
	C58.990303,74.992950 59.004219,74.967056 59.323547,74.932861 
	C60.095554,74.266205 60.548229,73.633736 61.384171,72.953995 
	C66.228996,71.339478 70.684372,69.753967 75.163284,68.238014 
	C75.541428,68.110023 76.073425,68.465561 76.540421,68.566513 
	C80.316971,69.382820 84.175308,69.932571 87.852127,71.069809 
	C92.315811,72.450432 96.626755,74.324898 100.838821,76.072968 
	C100.608276,76.264008 100.465096,76.430618 100.489861,76.461197 
	C100.635323,76.640762 100.819984,76.788582 101.007050,76.962265 
	C101.022675,76.977425 101.052849,77.008812 101.127090,77.174896 
	C101.463432,77.232437 101.725533,77.123886 102.243317,77.004456 
	C102.669434,77.001106 102.839874,77.008629 103.004074,77.381729 
	C102.337837,79.458397 101.677841,81.169487 101.017838,82.880569 
z"/>
<path fill="#2893A7" opacity="1.000000" stroke="none" 
	d="
M40.951191,124.029388 
	C35.486691,116.772903 29.968832,109.555252 24.624876,102.211067 
	C23.952791,101.287422 23.579828,99.292732 24.113173,98.479897 
	C28.519623,91.764282 33.172577,85.210419 38.239052,78.303185 
	C39.150494,77.996429 39.573769,77.994049 39.994373,78.355301 
	C38.595158,82.080498 36.463379,85.360863 36.079784,88.834297 
	C35.852276,90.894371 32.600914,94.930077 37.915092,96.371819 
	C38.367451,99.415573 38.788151,102.091026 38.812382,104.832489 
	C37.290150,105.198700 36.164387,105.498901 34.986534,105.812988 
	C36.247486,109.892380 41.670364,112.402252 38.098518,116.223358 
	C39.178112,119.177551 40.064651,121.603470 40.951191,124.029388 
z"/>
<path fill="#2E98AB" opacity="1.000000" stroke="none" 
	d="
M41.087051,124.337631 
	C40.064651,121.603470 39.178112,119.177551 38.098518,116.223358 
	C41.670364,112.402252 36.247486,109.892380 34.986534,105.812988 
	C36.164387,105.498901 37.290150,105.198700 38.794518,104.870644 
	C39.173122,104.842789 39.092556,104.821449 39.168018,105.079620 
	C39.512177,105.565063 39.780872,105.792336 40.323639,106.208267 
	C44.736675,110.928383 48.875648,115.459854 52.625000,119.996094 
	C44.473614,121.928818 53.908878,125.123512 51.025448,127.411697 
	C52.940952,127.411697 54.196014,127.411697 55.793518,127.411697 
	C55.220852,132.751129 58.523979,133.967484 62.735149,135.277237 
	C67.775780,136.844986 72.786362,137.317749 77.918266,138.011353 
	C81.677330,138.519409 81.853310,137.805817 82.030014,134.968628 
	C82.120697,134.893433 82.301399,134.742264 82.301399,134.742264 
	C83.389702,136.553848 84.478004,138.365417 86.092957,141.053665 
	C68.637344,141.140274 53.622715,136.626831 41.087051,124.337631 
z"/>
<path fill="#2B9AAD" opacity="1.000000" stroke="none" 
	d="
M37.883434,96.003510 
	C32.600914,94.930077 35.852276,90.894371 36.079784,88.834297 
	C36.463379,85.360863 38.595158,82.080498 39.994328,77.992920 
	C39.973335,76.783035 39.949718,76.299164 39.926102,75.815285 
	C39.961590,75.473175 40.128677,75.216843 41.039482,75.014091 
	C42.720741,73.927795 43.789886,72.873695 44.859032,71.819595 
	C44.859032,71.819595 44.998882,71.915001 45.301743,71.929443 
	C46.699383,70.908470 47.794159,69.873062 48.888939,68.837654 
	C48.888935,68.837654 48.979458,68.928894 49.358505,68.946701 
	C51.488941,68.975517 53.240330,68.986534 54.953720,69.367233 
	C53.690548,72.460281 53.421093,74.865990 56.995457,75.994125 
	C55.700172,77.375954 54.404888,78.757790 52.761818,80.597900 
	C48.389660,85.067657 44.365288,89.079124 40.051064,93.176193 
	C39.571236,93.599167 39.381268,93.936531 39.175274,94.217964 
	C39.159248,94.162033 39.269169,94.200211 38.984482,94.252037 
	C38.489666,94.612465 38.279533,94.921066 38.061600,95.432426 
	C38.053802,95.635185 37.883434,96.003510 37.883434,96.003510 
z"/>
<path fill="#1A1919" opacity="1.000000" stroke="none" 
	d="
M75.882599,91.962189 
	C80.840172,91.953094 85.749725,92.349411 86.545540,97.664940 
	C87.295692,102.675476 82.435669,103.588509 77.955856,104.690529 
	C81.250206,108.174675 84.054466,111.140503 86.858734,114.106323 
	C86.534431,114.544785 86.210136,114.983253 85.885834,115.421715 
	C83.986397,114.106377 81.934181,112.961380 80.227821,111.430786 
	C78.277824,109.681664 76.635498,107.589523 74.829521,105.613655 
	C71.444214,108.089417 76.229988,113.802689 70.331146,115.189476 
	C70.331146,107.191864 70.331146,99.789886 70.331146,91.966301 
	C72.189873,91.966301 73.809448,91.966301 75.882599,91.962189 
M77.408417,101.440826 
	C79.807777,100.862282 84.050568,101.061798 82.675049,97.648979 
	C81.870995,95.654045 77.208862,95.214081 74.282394,94.074570 
	C74.000244,94.586243 73.718086,95.097908 73.435936,95.609573 
	C74.151222,97.694756 71.217575,101.434830 77.408417,101.440826 
z"/>
<path fill="#171717" opacity="1.000000" stroke="none" 
	d="
M104.718224,96.042053 
	C103.238770,96.222130 101.899826,96.047943 100.561478,95.869301 
	C98.807610,95.635185 97.029121,95.120529 95.310974,95.276085 
	C94.426552,95.356148 93.118790,96.546089 92.990616,97.385437 
	C92.885765,98.072052 94.092812,99.280052 94.984665,99.737457 
	C97.631248,101.094788 100.708748,101.795654 103.032463,103.535088 
	C104.618988,104.722694 106.286674,107.406227 105.992653,109.083389 
	C105.648430,111.046967 103.549294,113.388565 101.621590,114.257187 
	C96.352882,116.631241 90.896072,114.627678 87.259926,108.934471 
	C89.062012,109.196983 90.258438,109.154480 91.258209,109.577133 
	C92.282631,110.010208 93.175110,111.548492 94.019753,111.469788 
	C96.928215,111.198776 101.358307,111.347572 102.341766,109.662849 
	C104.346153,106.229210 99.948830,105.484230 97.748131,104.153976 
	C96.064110,103.136024 93.889915,102.872482 92.320900,101.737961 
	C90.974709,100.764572 89.266945,98.962036 89.368065,97.653641 
	C89.493698,96.028328 90.990196,94.021622 92.468254,93.082336 
	C96.426025,90.567245 101.141273,91.755470 104.718224,96.042053 
z"/>
<path fill="#111111" opacity="1.000000" stroke="none" 
	d="
M152.493149,140.885040 
	C143.889038,141.073639 139.362030,138.277054 138.854874,132.768936 
	C138.384918,127.664856 141.644531,123.736137 147.127548,122.798119 
	C153.817505,121.653633 159.639832,124.556854 160.897476,129.664291 
	C162.143372,134.724060 159.421982,138.528488 152.493149,140.885040 
M156.714355,135.190369 
	C158.505554,131.924225 158.104797,128.935928 154.965576,126.901703 
	C151.434570,124.613579 147.397842,124.513924 144.373871,127.437668 
	C142.948151,128.816132 142.085464,132.092712 142.678146,133.968872 
	C143.909943,137.868164 147.669022,138.589218 151.355698,137.973526 
	C153.048111,137.690857 154.594940,136.536530 156.714355,135.190369 
z"/>
<path fill="#1C1C1C" opacity="1.000000" stroke="none" 
	d="
M169.657196,122.768288 
	C177.120834,122.354073 179.620361,123.674713 180.586670,128.264938 
	C181.768463,133.878754 180.725983,139.742325 177.604675,141.030533 
	C177.604675,137.683563 177.503342,134.608887 177.630478,131.543671 
	C177.787354,127.761589 176.464157,125.362846 172.339386,125.449638 
	C168.512009,125.530190 166.544769,127.390121 166.803497,131.421539 
	C166.962921,133.905518 166.944763,136.418015 166.746521,138.896927 
	C166.690216,139.601166 165.721939,140.232468 165.171890,140.897232 
	C164.625977,140.248611 163.622757,139.611237 163.606491,138.949600 
	C163.476776,133.672562 163.534119,128.390930 163.534119,122.842026 
	C165.738129,122.842026 167.504333,122.842026 169.657196,122.768288 
z"/>
<path fill="#0F0F0F" opacity="1.000000" stroke="none" 
	d="
M129.583405,93.176254 
	C130.974304,95.392311 133.145966,97.754143 132.700562,99.413544 
	C132.202759,101.268242 129.533035,102.976242 127.434715,103.840294 
	C125.406219,104.675583 122.902122,104.355873 120.109985,104.584129 
	C120.109985,107.308342 120.237823,109.919983 120.036644,112.506035 
	C119.971329,113.345604 119.045174,114.118210 118.512772,114.921448 
	C117.987274,114.106194 117.021431,113.299217 117.005920,112.474365 
	C116.881424,105.853897 116.936272,99.230049 116.936272,91.635910 
	C121.228081,92.117149 125.218765,92.564621 129.583405,93.176254 
M120.143524,100.404572 
	C122.584259,100.560524 125.051613,100.979103 127.451874,100.735794 
	C128.340942,100.645676 129.724579,98.979301 129.694519,98.071114 
	C129.663712,97.140854 128.315033,95.726044 127.301277,95.465843 
	C125.154526,94.914856 122.850334,94.977264 120.312988,94.762970 
	C120.219498,96.607529 120.146881,98.040375 120.143524,100.404572 
z"/>
<path fill="#191919" opacity="1.000000" stroke="none" 
	d="
M123.938660,125.625069 
	C122.262817,125.812447 121.006416,126.133064 119.750015,126.453674 
	C119.720734,126.952377 119.691460,127.451088 119.662186,127.949791 
	C121.197151,128.637299 122.704689,129.396362 124.272713,129.997681 
	C127.697525,131.311035 131.037537,132.778046 129.701538,137.390167 
	C128.780716,140.568970 123.568886,141.976105 119.759018,140.105606 
	C118.276016,139.377487 117.086929,138.050735 115.178436,136.530151 
	C119.627083,134.817474 123.554199,141.263657 127.358627,135.008209 
	C125.046234,133.947083 122.685555,133.301865 120.896889,131.917557 
	C119.169838,130.580963 117.343811,128.627274 116.928757,126.656654 
	C116.723175,125.680573 119.563805,123.002983 121.075073,122.963463 
	C123.599861,122.897438 126.175674,124.297478 128.686142,125.202141 
	C128.863388,125.266006 128.680511,126.329208 128.665070,126.927727 
	C127.229408,126.537918 125.793755,126.148109 123.938660,125.625069 
z"/>
<path fill="#3398A9" opacity="1.000000" stroke="none" 
	d="
M54.466084,65.381241 
	C69.889938,55.994804 98.644096,57.809383 113.938278,71.590897 
	C114.041573,71.954559 113.897255,72.103004 113.496635,72.069572 
	C111.712585,71.670959 110.207260,71.540451 108.968399,70.896942 
	C105.133286,68.904846 101.625351,65.831337 97.577087,64.799995 
	C90.315109,62.949928 82.773849,62.095779 75.303131,61.218605 
	C72.606300,60.901958 69.776794,61.715305 66.640091,62.050026 
	C62.517624,63.394089 58.762897,64.701126 54.875252,65.849182 
	C54.742329,65.690208 54.466084,65.381241 54.466084,65.381241 
z"/>
<path fill="#161717" opacity="1.000000" stroke="none" 
	d="
M95.552170,138.501801 
	C92.585571,133.330185 89.828766,128.456924 87.071960,123.583672 
	C93.357254,123.904953 93.115646,130.592972 96.873009,133.373520 
	C100.807938,130.597977 100.558907,123.917900 107.541862,122.314026 
	C103.944572,128.640854 100.914261,134.009201 97.775352,139.313293 
	C97.676247,139.480774 96.458321,138.986130 95.552170,138.501801 
z"/>
<path fill="#3398A9" opacity="1.000000" stroke="none" 
	d="
M101.406609,82.951416 
	C101.677841,81.169487 102.337837,79.458397 103.358658,77.409180 
	C106.560104,78.719666 109.400742,80.368294 112.241371,82.016914 
	C112.558174,81.526428 112.874985,81.035950 113.191788,80.545464 
	C111.881775,79.341537 110.571754,78.137611 109.363792,77.027473 
	C109.692566,74.077957 115.726364,76.863281 113.897255,72.103004 
	C113.897255,72.103004 114.041573,71.954559 114.113235,71.879761 
	C117.793755,75.101555 121.402618,78.398132 125.011482,81.694717 
	C124.815933,82.153496 124.620377,82.612282 124.424820,83.071060 
	C118.502190,82.417023 112.499207,84.709015 106.559769,81.459930 
	C105.556694,80.911209 103.412392,82.448677 101.406609,82.951416 
z"/>
<path fill="#0E0E0E" opacity="1.000000" stroke="none" 
	d="
M109.755051,132.869446 
	C109.761620,129.930893 109.584366,127.434395 109.870468,124.992172 
	C109.976486,124.087173 111.170479,123.309639 112.773270,121.390228 
	C112.773270,128.783768 112.773270,134.509018 112.773270,140.239120 
	C109.748283,140.130981 109.748283,140.130981 109.755051,132.869446 
z"/>
<path fill="#060606" opacity="1.000000" stroke="none" 
	d="
M111.863029,114.870392 
	C110.861504,114.454231 109.864090,113.990593 109.855171,113.508652 
	C109.735619,107.050835 109.711044,100.589867 109.799721,94.131561 
	C109.809410,93.426094 110.668617,92.732292 111.133789,92.033081 
	C111.756706,92.569794 112.927361,93.114395 112.919762,93.642044 
	C112.818192,100.700882 112.551956,107.757355 111.863029,114.870392 
z"/>
<path fill="#090909" opacity="1.000000" stroke="none" 
	d="
M133.037140,139.431107 
	C132.974304,134.486145 132.900345,129.988266 133.033447,125.496498 
	C133.059998,124.600449 133.877594,123.727844 134.330429,122.844437 
	C134.916702,123.748589 135.968307,124.632256 136.009186,125.560425 
	C136.192169,129.715179 136.072601,133.882675 136.091904,138.045441 
	C136.102585,140.348145 135.606308,141.729965 133.037140,139.431107 
z"/>
<path fill="#3398A9" opacity="1.000000" stroke="none" 
	d="
M54.991714,68.997559 
	C53.240330,68.986534 51.488941,68.975517 49.297955,68.925179 
	C50.520805,67.795937 52.183258,66.706017 54.155895,65.498665 
	C54.466084,65.381241 54.742329,65.690208 54.871948,66.222046 
	C55.000214,67.499786 54.998859,68.245697 54.998619,68.995422 
	C54.999729,68.999229 54.991714,68.997559 54.991714,68.997559 
z"/>
<path fill="#3398A9" opacity="1.000000" stroke="none" 
	d="
M48.570290,68.902054 
	C47.794159,69.873062 46.699383,70.908470 45.222309,71.900208 
	C45.977222,70.893166 47.114429,69.929810 48.570290,68.902054 
z"/>
<path fill="#3398A9" opacity="1.000000" stroke="none" 
	d="
M44.550117,71.905182 
	C43.789886,72.873695 42.720741,73.927795 41.272552,74.971542 
	C42.009403,73.971046 43.125301,72.980904 44.550117,71.905182 
z"/>
<path fill="#3398A9" opacity="1.000000" stroke="none" 
	d="
M39.645729,75.941742 
	C39.949718,76.299164 39.973335,76.783035 39.996998,77.629288 
	C39.573769,77.994049 39.150494,77.996429 38.410423,78.001930 
	C38.517536,77.359444 38.941448,76.713829 39.645729,75.941742 
z"/>
<path fill="#2E98AB" opacity="1.000000" stroke="none" 
	d="
M80.986137,134.034500 
	C80.986137,134.034500 81.435051,134.016006 81.659348,134.008636 
	C81.883644,134.001282 82.186867,134.318970 82.244133,134.530609 
	C82.301399,134.742264 82.120697,134.893433 81.826042,134.847046 
	C81.275688,134.597900 81.093941,134.342514 80.986137,134.034500 
z"/>
<path fill="#249DB0" opacity="1.000000" stroke="none" 
	d="
M113.496635,72.069572 
	C115.726364,76.863281 109.692566,74.077957 109.363792,77.027473 
	C110.571754,78.137611 111.881775,79.341537 113.191788,80.545464 
	C112.874985,81.035950 112.558174,81.526428 112.241371,82.016914 
	C109.400742,80.368294 106.560104,78.719666 103.364899,77.043594 
	C102.839874,77.008629 102.669434,77.001106 102.009758,76.996674 
	C101.520523,76.999763 101.052849,77.008812 101.052849,77.008812 
	C101.052849,77.008812 101.022675,76.977425 101.014053,76.722191 
	C101.005440,76.466957 101.003777,75.985695 101.003777,75.985695 
	C96.626755,74.324898 92.315811,72.450432 87.852127,71.069809 
	C84.175308,69.932571 80.316971,69.382820 76.540421,68.566513 
	C76.073425,68.465561 75.541428,68.110023 75.163284,68.238014 
	C70.684372,69.753967 66.228996,71.339478 61.065804,72.994141 
	C59.910851,73.710060 59.457535,74.338562 59.004219,74.967056 
	C59.004219,74.967056 58.990303,74.992950 58.769249,75.103134 
	C58.287273,75.400871 58.102531,75.645874 57.993969,75.948334 
	C57.993969,75.948334 57.494766,75.971512 57.245110,75.982819 
	C53.421093,74.865990 53.690548,72.460281 54.953720,69.367233 
	C54.991714,68.997559 54.999729,68.999229 55.398361,68.997803 
	C60.260334,67.834709 65.532539,67.971573 67.007828,62.013004 
	C69.776794,61.715305 72.606300,60.901958 75.303131,61.218605 
	C82.773849,62.095779 90.315109,62.949928 97.577087,64.799995 
	C101.625351,65.831337 105.133286,68.904846 108.968399,70.896942 
	C110.207260,71.540451 111.712585,71.670959 113.496635,72.069572 
M98.294914,69.433868 
	C98.010590,69.705177 97.726265,69.976494 97.441940,70.247810 
	C97.554428,70.365456 97.758507,70.591576 97.766197,70.585083 
	C98.066063,70.331894 98.348030,70.057495 98.294914,69.433868 
z"/>
<path fill="#F0FCFC" opacity="1.000000" stroke="none" 
	d="
M37.915092,96.371819 
	C37.883434,96.003510 38.053802,95.635185 38.333359,95.336952 
	C38.831669,94.759216 39.050419,94.479713 39.269173,94.200211 
	C39.269169,94.200211 39.159248,94.162033 39.465736,94.145401 
	C39.961788,93.782707 40.151352,93.436653 40.340919,93.090599 
	C44.365288,89.079124 48.389660,85.067657 52.724747,80.883926 
	C52.036987,84.265121 51.018723,87.813141 50.043808,91.373039 
	C47.299625,101.393372 49.977787,110.379234 55.274647,118.882690 
	C55.682140,119.536880 55.733803,120.412712 55.667191,121.497177 
	C54.965469,121.525017 54.547413,121.241196 54.017582,120.718521 
	C53.605774,120.314812 53.305740,120.149963 53.002670,119.992294 
	C52.999638,119.999466 53.014618,119.991318 53.014618,119.991318 
	C48.875648,115.459854 44.736675,110.928383 40.262600,105.937691 
	C39.649181,105.259453 39.370869,105.040451 39.092556,104.821449 
	C39.092556,104.821449 39.173122,104.842789 39.190987,104.804626 
	C38.788151,102.091026 38.367451,99.415573 37.915092,96.371819 
z"/>
<path fill="#289EB1" opacity="1.000000" stroke="none" 
	d="
M54.129356,120.957382 
	C54.547413,121.241196 54.965469,121.525017 55.634949,121.868362 
	C56.436245,123.235420 56.986122,124.542961 57.423302,125.582527 
	C66.495537,124.310532 72.882957,130.608109 80.646225,133.984100 
	C81.093941,134.342514 81.275688,134.597900 81.735367,134.922241 
	C81.853310,137.805817 81.677330,138.519409 77.918266,138.011353 
	C72.786362,137.317749 67.775780,136.844986 62.735149,135.277237 
	C58.523979,133.967484 55.220852,132.751129 55.793518,127.411697 
	C54.196014,127.411697 52.940952,127.411697 51.025448,127.411697 
	C53.908878,125.123512 44.473614,121.928818 52.625000,119.996094 
	C53.014618,119.991318 52.999638,119.999466 53.123573,120.222046 
	C53.541454,120.615547 53.835403,120.786461 54.129356,120.957382 
z"/>
<path fill="#2B9AAD" opacity="1.000000" stroke="none" 
	d="
M59.323547,74.932861 
	C59.457535,74.338562 59.910851,73.710060 60.682541,73.041412 
	C60.548229,73.633736 60.095554,74.266205 59.323547,74.932861 
z"/>
<path fill="#2B9AAD" opacity="1.000000" stroke="none" 
	d="
M58.212173,75.858444 
	C58.102531,75.645874 58.287273,75.400871 58.757977,75.112564 
	C58.880161,75.329071 58.701035,75.581314 58.212173,75.858444 
z"/>
<path fill="#3398A9" opacity="1.000000" stroke="none" 
	d="
M101.127090,77.174896 
	C101.052849,77.008812 101.520523,76.999763 101.754074,77.007553 
	C101.725533,77.123886 101.463432,77.232437 101.127090,77.174896 
z"/>
<path fill="#3398A9" opacity="1.000000" stroke="none" 
	d="
M100.838821,76.072968 
	C101.003777,75.985695 101.005440,76.466957 100.998428,76.707031 
	C100.819984,76.788582 100.635323,76.640762 100.489861,76.461197 
	C100.465096,76.430618 100.608276,76.264008 100.838821,76.072968 
z"/>
<path fill="#2893A7" opacity="1.000000" stroke="none" 
	d="
M39.168018,105.079620 
	C39.370869,105.040451 39.649181,105.259453 39.988533,105.749039 
	C39.780872,105.792336 39.512177,105.565063 39.168018,105.079620 
z"/>
<path fill="#2893A7" opacity="1.000000" stroke="none" 
	d="
M38.984486,94.252037 
	C39.050419,94.479713 38.831669,94.759216 38.341156,95.134193 
	C38.279533,94.921066 38.489666,94.612465 38.984486,94.252037 
z"/>
<path fill="#2893A7" opacity="1.000000" stroke="none" 
	d="
M40.051060,93.176193 
	C40.151352,93.436653 39.961788,93.782707 39.481766,94.201324 
	C39.381268,93.936531 39.571236,93.599167 40.051060,93.176193 
z"/>
<path fill="#EDEDED" opacity="1.000000" stroke="none" 
	d="
M76.965248,101.439758 
	C71.217575,101.434830 74.151222,97.694756 73.435936,95.609573 
	C73.718086,95.097908 74.000244,94.586243 74.282394,94.074570 
	C77.208862,95.214081 81.870995,95.654045 82.675049,97.648979 
	C84.050568,101.061798 79.807777,100.862282 76.965248,101.439758 
z"/>
<path fill="#F3F3F3" opacity="1.000000" stroke="none" 
	d="
M156.461075,135.483917 
	C154.594940,136.536530 153.048111,137.690857 151.355698,137.973526 
	C147.669022,138.589218 143.909943,137.868164 142.678146,133.968872 
	C142.085464,132.092712 142.948151,128.816132 144.373871,127.437668 
	C147.397842,124.513924 151.434570,124.613579 154.965576,126.901703 
	C158.104797,128.935928 158.505554,131.924225 156.461075,135.483917 
z"/>
<path fill="#F0F1F1" opacity="1.000000" stroke="none" 
	d="
M120.108894,99.938896 
	C120.146881,98.040375 120.219498,96.607529 120.312988,94.762970 
	C122.850334,94.977264 125.154526,94.914856 127.301277,95.465843 
	C128.315033,95.726044 129.663712,97.140854 129.694519,98.071114 
	C129.724579,98.979301 128.340942,100.645676 127.451874,100.735794 
	C125.051613,100.979103 122.584259,100.560524 120.108894,99.938896 
z"/>
<path fill="#2B9AAD" opacity="1.000000" stroke="none" 
	d="
M66.640091,62.050026 
	C65.532539,67.971573 60.260334,67.834709 55.397251,68.993988 
	C54.998859,68.245697 55.000214,67.499786 55.004868,66.381020 
	C58.762897,64.701126 62.517624,63.394089 66.640091,62.050026 
z"/>
<path fill="#3398A9" opacity="1.000000" stroke="none" 
	d="
M98.463623,69.609863 
	C98.348030,70.057495 98.066063,70.331894 97.766197,70.585083 
	C97.758507,70.591576 97.554428,70.365456 97.441940,70.247810 
	C97.726265,69.976494 98.010590,69.705177 98.463623,69.609863 
z"/>
<path fill="#2E98AB" opacity="1.000000" stroke="none" 
	d="
M54.017578,120.718521 
	C53.835403,120.786461 53.541454,120.615547 53.126602,120.214874 
	C53.305740,120.149963 53.605774,120.314812 54.017578,120.718521 
z"/>
</svg>